<svg width="48" height="66" viewBox="0 0 48 66" fill="none" xmlns="http://www.w3.org/2000/svg">
<g clip-path="url(#clip0_69:1657)">
<path d="M47.32 24.08C47.32 24.42 47.31 24.74 47.29 25.08C47.29 25.16 47.29 25.26 47.28 25.34C47.23 26.15 47.13 26.96 46.98 27.75C46.97 27.83 46.95 27.91 46.93 27.99C46.78 28.8 46.58 29.61 46.31 30.4C46.3 30.48 46.26 30.56 46.23 30.66C45.95 31.49 45.62 32.28 45.23 33.06C45.2 33.15 45.15 33.24 45.11 33.32C44.69 34.16 44.22 34.96 43.69 35.73C43.64 35.81 43.58 35.89 43.51 35.97C42.91 36.82 42.26 37.62 41.55 38.38C41.47 38.47 41.39 38.56 41.31 38.64C40.47 39.51 39.56 40.3 38.59 41.04C38.47 41.13 38.36 41.22 38.24 41.3C36.95 42.23 35.56 43.05 34.08 43.71C33.89 43.79 33.7 43.89 33.51 43.95C30.52 45.22 27.19 45.93 23.67 45.93C20.15 45.93 16.81 45.23 13.82 43.95C13.63 43.87 13.44 43.79 13.27 43.71C11.78 43.05 10.4 42.23 9.11 41.3C8.99 41.22 8.87 41.14 8.76 41.04C7.79 40.31 6.86 39.51 6.04 38.64C5.95 38.56 5.86 38.48 5.8 38.38C5.08 37.62 4.42 36.82 3.82 35.97C3.77 35.89 3.71 35.81 3.66 35.73C3.13 34.96 2.64 34.16 2.24 33.32C2.19 33.24 2.15 33.16 2.1 33.06C1.72 32.29 1.38 31.49 1.1 30.66C1.06 30.56 1.03 30.48 1 30.4C0.74 29.61 0.54 28.8 0.38 27.99C0.37 27.91 0.35 27.83 0.34 27.75C0.19 26.97 0.1 26.15 0.04 25.34C0.03 25.26 0.03 25.16 0.03 25.08C0.01 24.74 0 24.42 0 24.08C0 23.61 0.01 23.15 0.05 22.69C0.05 22.61 0.05 22.51 0.06 22.43C0.13 21.62 0.24 20.81 0.4 20.02C0.41 19.94 0.44 19.86 0.45 19.78C0.63 18.97 0.86 18.16 1.13 17.37C1.16 17.29 1.18 17.21 1.22 17.11C1.52 16.28 1.87 15.49 2.28 14.71C2.32 14.62 2.36 14.53 2.42 14.45C2.85 13.61 3.35 12.81 3.91 12.04C3.96 11.96 4.03 11.88 4.09 11.8C4.71 10.95 5.4 10.15 6.15 9.39C6.24 9.3 6.32 9.22 6.42 9.14C7.3 8.27 8.26 7.46 9.29 6.74C9.41 6.65 9.53 6.56 9.66 6.48C11.05 5.53 12.56 4.72 14.17 4.07C14.39 3.99 14.59 3.91 14.81 3.83C17.54 2.8 20.54 2.25 23.68 2.25C26.82 2.25 29.81 2.82 32.55 3.83C32.77 3.91 32.97 3.99 33.17 4.07C34.78 4.72 36.3 5.53 37.69 6.48C37.81 6.56 37.95 6.66 38.07 6.74C39.09 7.47 40.05 8.27 40.93 9.14C41 9.22 41.08 9.3 41.17 9.39C41.91 10.15 42.59 10.95 43.21 11.8C43.28 11.88 43.33 11.96 43.39 12.04C43.95 12.81 44.45 13.61 44.88 14.45C44.93 14.53 44.99 14.61 45.03 14.71C45.44 15.48 45.79 16.28 46.07 17.11C46.11 17.2 46.15 17.29 46.16 17.37C46.44 18.16 46.67 18.97 46.84 19.78C46.87 19.86 46.89 19.94 46.89 20.02C47.07 20.8 47.17 21.62 47.24 22.43C47.25 22.51 47.25 22.61 47.25 22.69C47.31 23.15 47.32 23.61 47.32 24.08Z" fill="#EC544F"/>
<path d="M33.15 4.08H14.16C14.38 4 14.58 3.92 14.8 3.84H32.53C32.74 3.91 32.94 3.99 33.15 4.08Z" fill="#DD3A3A"/>
<path d="M38.05 6.74H9.28999C9.40999 6.65 9.52999 6.56 9.65999 6.48H37.68C37.79 6.57 37.93 6.66 38.05 6.74Z" fill="#DD3A3A"/>
<path d="M41.17 9.39H6.14999C6.23999 9.3 6.31999 9.22 6.41999 9.14H40.9C41 9.22 41.08 9.3 41.17 9.39Z" fill="#DD3A3A"/>
<path d="M43.39 12.05H3.91C3.96 11.97 4.03 11.89 4.09 11.81H43.22C43.29 11.89 43.34 11.97 43.39 12.05Z" fill="#DD3A3A"/>
<path d="M45.03 14.71H2.28999C2.32999 14.62 2.36999 14.53 2.42999 14.45H44.89C44.94 14.54 44.99 14.62 45.03 14.71Z" fill="#DD3A3A"/>
<path d="M46.17 17.37H1.14C1.17 17.29 1.19 17.21 1.23 17.11H46.07C46.11 17.2 46.16 17.29 46.17 17.37Z" fill="#DD3A3A"/>
<path d="M46.9 20.02H0.410004C0.420004 19.94 0.450004 19.86 0.460004 19.78H46.85C46.87 19.86 46.9 19.94 46.9 20.02Z" fill="#DD3A3A"/>
<path d="M47.27 22.69H0.0500031C0.0500031 22.61 0.050003 22.51 0.060003 22.43H47.24C47.27 22.51 47.27 22.61 47.27 22.69Z" fill="#DD3A3A"/>
<path d="M47.29 25.08C47.29 25.16 47.29 25.26 47.28 25.34H0.0399988C0.0299988 25.26 0.0299988 25.16 0.0299988 25.08H47.29Z" fill="#DD3A3A"/>
<path d="M46.98 27.75C46.97 27.83 46.95 27.91 46.93 27.99H0.379996C0.369996 27.91 0.349996 27.83 0.339996 27.75H46.98Z" fill="#DD3A3A"/>
<path d="M46.3 30.4C46.29 30.48 46.25 30.56 46.22 30.66H1.08C1.06 30.56 1.03 30.48 1 30.4H46.3Z" fill="#DD3A3A"/>
<path d="M45.22 33.05C45.19 33.14 45.14 33.23 45.1 33.31H2.22C2.17 33.23 2.13 33.15 2.08 33.05H45.22Z" fill="#DD3A3A"/>
<path d="M43.68 35.72C43.63 35.8 43.57 35.88 43.5 35.96H3.8C3.75 35.88 3.69 35.8 3.64 35.72H43.68Z" fill="#DD3A3A"/>
<path d="M41.54 38.37C41.46 38.46 41.38 38.55 41.3 38.63H6.02C5.93 38.55 5.84 38.47 5.78 38.37H41.54Z" fill="#DD3A3A"/>
<path d="M38.58 41.03C38.46 41.12 38.35 41.21 38.23 41.29H9.1C8.98 41.21 8.86 41.13 8.75 41.03H38.58Z" fill="#DD3A3A"/>
<path d="M34.07 43.69C33.88 43.77 33.69 43.87 33.5 43.93H13.81C13.62 43.85 13.43 43.77 13.26 43.69H34.07Z" fill="#DD3A3A"/>
<path d="M38.68 24.08C38.68 24.42 38.68 24.74 38.67 25.08C38.67 25.16 38.66 25.26 38.66 25.34C38.63 26.15 38.57 26.96 38.47 27.75C38.47 27.83 38.46 27.91 38.44 27.99C38.35 28.8 38.21 29.61 38.05 30.4C38.04 30.48 38.01 30.56 38 30.66C37.82 31.49 37.61 32.28 37.36 33.06C37.33 33.15 37.31 33.24 37.28 33.32C37.01 34.16 36.71 34.96 36.37 35.73C36.34 35.81 36.3 35.89 36.26 35.97C35.89 36.82 35.47 37.62 35.01 38.38C34.96 38.47 34.92 38.56 34.86 38.64C34.32 39.51 33.75 40.3 33.13 41.04C33.06 41.13 32.98 41.22 32.9 41.3C32.09 42.23 31.21 43.05 30.26 43.71C30.15 43.79 30.03 43.87 29.91 43.95C28.01 45.22 25.89 45.93 23.66 45.93C21.43 45.93 19.3 45.23 17.39 43.95C17.27 43.87 17.16 43.79 17.04 43.71C16.09 43.05 15.21 42.23 14.4 41.3C14.32 41.22 14.24 41.14 14.17 41.04C13.55 40.31 12.98 39.51 12.44 38.64C12.39 38.56 12.35 38.48 12.29 38.38C11.83 37.62 11.41 36.82 11.04 35.97C11 35.89 10.96 35.81 10.93 35.73C10.59 34.96 10.29 34.16 10.02 33.32C9.99 33.24 9.96999 33.16 9.93999 33.06C9.69999 32.29 9.48 31.49 9.3 30.66C9.29 30.57 9.26 30.48 9.25 30.4C9.09 29.61 8.94999 28.8 8.85999 27.99C8.84999 27.91 8.83 27.83 8.83 27.75C8.74 26.97 8.67 26.15 8.64 25.34C8.64 25.26 8.63 25.16 8.63 25.08C8.62 24.74 8.62 24.42 8.62 24.08C8.62 23.61 8.62999 23.15 8.64999 22.69C8.65999 22.61 8.66 22.51 8.66 22.43C8.7 21.62 8.78 20.81 8.89 20.02C8.89 19.94 8.9 19.86 8.92 19.78C9.03 18.97 9.18 18.16 9.35 17.37C9.36 17.29 9.37999 17.21 9.39999 17.11C9.58999 16.28 9.81 15.49 10.06 14.71C10.09 14.62 10.11 14.53 10.14 14.45C10.42 13.61 10.75 12.81 11.09 12.04C11.13 11.96 11.17 11.88 11.2 11.8C11.61 10.95 12.04 10.15 12.51 9.39C12.56 9.31 12.62 9.21 12.69 9.13C13.25 8.26 13.85 7.47 14.52 6.73C14.59 6.64 14.67 6.55 14.75 6.47C15.63 5.52 16.59 4.71 17.62 4.06C17.76 3.98 17.88 3.9 18.01 3.82C19.76 2.8 21.66 2.24 23.65 2.24C25.64 2.24 27.55 2.79 29.28 3.82C29.42 3.9 29.55 3.98 29.67 4.06C30.7 4.71 31.66 5.52 32.54 6.47C32.62 6.55 32.7 6.63 32.78 6.73C33.43 7.46 34.04 8.26 34.59 9.13C34.66 9.21 34.71 9.31 34.77 9.39C35.24 10.15 35.68 10.95 36.08 11.8C36.11 11.88 36.15 11.96 36.19 12.04C36.53 12.81 36.85 13.61 37.14 14.45C37.17 14.53 37.19 14.61 37.22 14.71C37.48 15.48 37.69 16.28 37.88 17.11C37.91 17.2 37.92 17.29 37.93 17.37C38.11 18.16 38.25 18.97 38.36 19.78C38.37 19.86 38.39 19.94 38.39 20.02C38.5 20.8 38.58 21.62 38.62 22.43C38.62 22.51 38.62 22.61 38.63 22.69C38.67 23.15 38.68 23.61 38.68 24.08Z" fill="#FFF254"/>
<path d="M29.68 4.08H17.62C17.76 4 17.88 3.92 18.01 3.84H29.28C29.43 3.91 29.56 3.99 29.68 4.08Z" fill="#F7E42D"/>
<path d="M32.8 6.74H14.52C14.59 6.65 14.67 6.56 14.75 6.48H32.55C32.63 6.57 32.71 6.65 32.8 6.74Z" fill="#F7E42D"/>
<path d="M34.79 9.39H12.52C12.57 9.31 12.63 9.21 12.7 9.13H34.61C34.68 9.22 34.73 9.31 34.79 9.39Z" fill="#F7E42D"/>
<path d="M36.21 12.05H11.1C11.14 11.97 11.18 11.89 11.21 11.81H36.1C36.13 11.89 36.17 11.97 36.21 12.05Z" fill="#F7E42D"/>
<path d="M37.24 14.71H10.07C10.1 14.62 10.12 14.53 10.15 14.45H37.15C37.18 14.54 37.21 14.62 37.24 14.71Z" fill="#F7E42D"/>
<path d="M37.95 17.37H9.35001C9.36001 17.29 9.38001 17.21 9.40001 17.11H37.9C37.93 17.2 37.94 17.29 37.95 17.37Z" fill="#F7E42D"/>
<path d="M38.41 20.02H8.89C8.89 19.94 8.9 19.86 8.92 19.78H38.39C38.4 19.86 38.41 19.94 38.41 20.02Z" fill="#F7E42D"/>
<path d="M38.66 22.69H8.64999C8.65999 22.61 8.65999 22.51 8.65999 22.43H38.64C38.64 22.51 38.64 22.61 38.66 22.69Z" fill="#F7E42D"/>
<path d="M38.67 25.08C38.67 25.16 38.66 25.26 38.66 25.34H8.65C8.65 25.26 8.64 25.16 8.64 25.08H38.67Z" fill="#F7E42D"/>
<path d="M38.47 27.75C38.47 27.83 38.46 27.91 38.44 27.99H8.87C8.86 27.91 8.84 27.83 8.84 27.75H38.47Z" fill="#F7E42D"/>
<path d="M38.05 30.4C38.04 30.48 38.01 30.56 38 30.66H9.30999C9.29999 30.57 9.26999 30.48 9.25999 30.4H38.05Z" fill="#F7E42D"/>
<path d="M37.36 33.05C37.33 33.14 37.31 33.23 37.28 33.31H10.03C10 33.23 9.98 33.15 9.95 33.05H37.36Z" fill="#F7E42D"/>
<path d="M36.37 35.72C36.34 35.8 36.3 35.88 36.26 35.96H11.04C11 35.88 10.96 35.8 10.93 35.72H36.37Z" fill="#F7E42D"/>
<path d="M35.02 38.37C34.97 38.46 34.93 38.55 34.87 38.63H12.44C12.39 38.55 12.35 38.47 12.29 38.37H35.02Z" fill="#F7E42D"/>
<path d="M33.13 41.03C33.06 41.12 32.98 41.21 32.9 41.29H14.4C14.32 41.21 14.24 41.13 14.17 41.03H33.13Z" fill="#F7E42D"/>
<path d="M30.26 43.69C30.15 43.77 30.03 43.85 29.91 43.93H17.39C17.27 43.85 17.16 43.77 17.04 43.69H30.26Z" fill="#F7E42D"/>
<path d="M35.94 24.08C35.94 24.42 35.94 24.74 35.93 25.08V25.34C35.9 26.15 35.85 26.96 35.77 27.75C35.77 27.83 35.76 27.91 35.76 27.99C35.67 28.8 35.56 29.61 35.42 30.4C35.41 30.48 35.39 30.56 35.38 30.66C35.23 31.49 35.06 32.28 34.85 33.06C34.84 33.15 34.81 33.24 34.78 33.32C34.58 34.16 34.32 34.96 34.05 35.73C34.02 35.81 34 35.89 33.96 35.97C33.66 36.82 33.32 37.62 32.94 38.38C32.9 38.47 32.86 38.56 32.82 38.64C32.39 39.51 31.91 40.3 31.41 41.04C31.34 41.13 31.29 41.22 31.22 41.3C30.56 42.23 29.84 43.05 29.07 43.71C28.98 43.79 28.88 43.89 28.77 43.95C27.23 45.22 25.49 45.93 23.67 45.93C21.84 45.93 20.11 45.23 18.57 43.95C18.46 43.88 18.37 43.79 18.27 43.71C17.5 43.05 16.78 42.23 16.1 41.3C16.05 41.22 15.98 41.14 15.92 41.04C15.41 40.31 14.93 39.51 14.5 38.64C14.46 38.56 14.42 38.48 14.38 38.38C14 37.62 13.66 36.82 13.36 35.97C13.32 35.89 13.29 35.81 13.27 35.73C13 34.96 12.74 34.16 12.53 33.32C12.52 33.24 12.49 33.16 12.46 33.06C12.27 32.29 12.09 31.49 11.95 30.66C11.94 30.57 11.92 30.48 11.91 30.4C11.77 29.61 11.67 28.8 11.59 27.99C11.58 27.91 11.56 27.83 11.56 27.75C11.48 26.97 11.42 26.15 11.4 25.34V25.08C11.39 24.74 11.39 24.42 11.39 24.08C11.39 23.61 11.4 23.15 11.42 22.69C11.42 22.61 11.42 22.51 11.43 22.43C11.46 21.62 11.52 20.81 11.61 20.02C11.61 19.94 11.62 19.86 11.64 19.78C11.73 18.97 11.84 18.16 11.99 17.37C12 17.29 12.02 17.21 12.04 17.11C12.19 16.28 12.36 15.49 12.58 14.71C12.61 14.62 12.62 14.53 12.65 14.45C12.88 13.61 13.14 12.81 13.42 12.04C13.46 11.96 13.49 11.88 13.51 11.8C13.83 10.95 14.19 10.15 14.58 9.39C14.62 9.31 14.67 9.21 14.72 9.13C15.18 8.26 15.68 7.47 16.22 6.73C16.27 6.64 16.34 6.55 16.41 6.47C17.13 5.52 17.91 4.71 18.75 4.06C18.86 3.98 18.97 3.9 19.07 3.82C20.49 2.8 22.03 2.24 23.67 2.24C25.31 2.24 26.85 2.81 28.27 3.82C28.38 3.9 28.49 3.98 28.59 4.06C29.43 4.71 30.21 5.52 30.93 6.47C31 6.55 31.05 6.63 31.12 6.73C31.66 7.46 32.16 8.26 32.61 9.13C32.65 9.21 32.7 9.31 32.75 9.39C33.14 10.15 33.49 10.95 33.82 11.8C33.85 11.88 33.87 11.96 33.91 12.04C34.19 12.81 34.45 13.61 34.68 14.45C34.71 14.53 34.72 14.61 34.75 14.71C34.97 15.48 35.14 16.28 35.29 17.11C35.32 17.2 35.33 17.29 35.34 17.37C35.49 18.16 35.6 18.97 35.71 19.78C35.71 19.86 35.72 19.94 35.74 20.02C35.81 20.8 35.88 21.62 35.9 22.43C35.91 22.51 35.91 22.61 35.91 22.69C35.92 23.15 35.94 23.61 35.94 24.08Z" fill="#E22B2B"/>
<path d="M31.8 0.440001C31.29 0.440001 30.75 0.330001 30.24 0.280001C29.72 0.230001 29.2 0.190001 28.68 0.150001C27.67 0.0800014 26.66 0.0300014 25.64 0.0100014C24.98 1.43051e-06 24.32 0.0100014 23.66 0.0200014C22.99 1.43051e-06 22.33 -0.00999857 21.67 0.0100014C20.66 0.0300014 19.65 0.0700014 18.63 0.150001C18.11 0.190001 17.59 0.230001 17.07 0.280001C16.56 0.330001 16.02 0.440001 15.51 0.440001C14.9 0.510001 14.06 0.690001 14.06 1.47C14.06 1.94 14.05 2.41 14.06 2.88C14.07 3.58 14.26 3.81 14.69 3.83C14.88 3.84 15.11 3.81 15.4 3.76C18.13 3.29 20.89 3.03 23.65 2.94C26.42 3.03 29.18 3.29 31.9 3.76C32.19 3.81 32.42 3.84 32.61 3.83C33.03 3.81 33.22 3.58 33.24 2.88C33.25 2.41 33.24 1.94 33.24 1.47C33.25 0.690001 32.4 0.510001 31.8 0.440001Z" fill="#F1AC23"/>
<path d="M31.8 47.71C31.11 47.82 30.34 47.8 29.95 47.84C28.33 47.99 26.71 48.08 25.08 48.11C22.98 48.15 20.89 48.1 18.79 47.96C17.74 47.89 16.7 47.79 15.66 47.67C15.02 47.6 14.05 47.48 14.05 46.64C14.05 46.17 14.04 45.7 14.05 45.23C14.06 44.53 14.25 44.3 14.68 44.28C14.87 44.27 15.1 44.3 15.39 44.35C18.12 44.82 20.88 45.08 23.64 45.17C26.41 45.08 29.17 44.82 31.89 44.35C32.18 44.3 32.41 44.27 32.6 44.28C33.02 44.3 33.21 44.53 33.23 45.23C33.24 45.7 33.23 46.17 33.23 46.64C33.25 47.32 32.57 47.59 31.8 47.71Z" fill="#D88E0B"/>
<path d="M14.87 45.72V64.71C14.79 64.7 14.72 64.67 14.67 64.62V45.72H14.87Z" fill="#D88E0B"/>
<path d="M16.06 45.72V64.94C15.99 64.93 15.91 64.93 15.84 64.91V45.72H16.06Z" fill="#D88E0B"/>
<path d="M17.24 45.72V65.06C17.17 65.05 17.1 65.05 17.04 65.03V45.72H17.24Z" fill="#D88E0B"/>
<path d="M18.43 45.72V65.16C18.36 65.16 18.29 65.16 18.21 65.15V45.72H18.43Z" fill="#D88E0B"/>
<path d="M19.61 45.72V65.24C19.54 65.24 19.47 65.24 19.41 65.23V45.73H19.61V45.72Z" fill="#D88E0B"/>
<path d="M20.8 45.72V65.3C20.73 65.3 20.66 65.3 20.58 65.29V45.72H20.8Z" fill="#D88E0B"/>
<path d="M21.97 45.72H21.77V65.33H21.97V45.72Z" fill="#D88E0B"/>
<path d="M23.17 45.72V65.35C23.1 65.36 23.02 65.36 22.95 65.35V45.72H23.17Z" fill="#D88E0B"/>
<path d="M24.34 45.72H24.14V65.36H24.34V45.72Z" fill="#D88E0B"/>
<path d="M25.54 45.72V65.33C25.47 65.34 25.39 65.34 25.32 65.34V45.72H25.54Z" fill="#D88E0B"/>
<path d="M26.72 45.72V65.3C26.65 65.31 26.58 65.31 26.52 65.3V45.72H26.72Z" fill="#D88E0B"/>
<path d="M27.91 45.72V65.24C27.84 65.25 27.76 65.25 27.69 65.25V45.72H27.91Z" fill="#D88E0B"/>
<path d="M29.08 45.72V65.14C29.01 65.17 28.94 65.17 28.88 65.15V45.72H29.08Z" fill="#D88E0B"/>
<path d="M30.27 45.72V65.06C30.2 65.06 30.13 65.07 30.08 65.07C30.07 65.07 30.07 65.07 30.05 65.07V45.72H30.27Z" fill="#D88E0B"/>
<path d="M31.45 45.72V65.01C31.38 65.02 31.31 65.02 31.25 65.02V45.72H31.45Z" fill="#D88E0B"/>
<path d="M32.64 45.72V64.76C32.57 64.79 32.5 64.81 32.42 64.84V45.72H32.64Z" fill="#D88E0B"/>
<path d="M28.59 4.08H18.74C18.85 4 18.96 3.92 19.06 3.84H28.26C28.37 3.91 28.48 3.99 28.59 4.08Z" fill="#D31818"/>
<path d="M31.12 6.74H16.2C16.25 6.65 16.32 6.56 16.39 6.48H30.93C31 6.57 31.05 6.65 31.12 6.74Z" fill="#D31818"/>
<path d="M32.74 9.39H14.56C14.6 9.31 14.65 9.21 14.7 9.13H32.61C32.65 9.22 32.7 9.31 32.74 9.39Z" fill="#D31818"/>
<path d="M33.91 12.05H13.4C13.44 11.97 13.47 11.89 13.49 11.81H33.81C33.84 11.89 33.87 11.97 33.91 12.05Z" fill="#D31818"/>
<path d="M34.74 14.71H12.56C12.59 14.62 12.6 14.53 12.63 14.45H34.68C34.7 14.54 34.72 14.62 34.74 14.71Z" fill="#D31818"/>
<path d="M35.34 17.37H11.97C11.98 17.29 12 17.21 12.02 17.11H35.29C35.31 17.2 35.33 17.29 35.34 17.37Z" fill="#D31818"/>
<path d="M35.73 20.02H11.59C11.59 19.94 11.6 19.86 11.62 19.78H35.71C35.71 19.86 35.72 19.94 35.73 20.02Z" fill="#D31818"/>
<path d="M35.91 22.69H11.4C11.4 22.61 11.4 22.51 11.41 22.43H35.9C35.91 22.51 35.91 22.61 35.91 22.69Z" fill="#D31818"/>
<path d="M35.92 25.08H11.38V25.34H35.92V25.08Z" fill="#D31818"/>
<path d="M35.76 27.75C35.76 27.83 35.75 27.91 35.75 27.99H11.57C11.56 27.91 11.54 27.83 11.54 27.75H35.76Z" fill="#D31818"/>
<path d="M35.41 30.4C35.4 30.48 35.38 30.56 35.37 30.66H11.94C11.93 30.57 11.91 30.48 11.9 30.4H35.41Z" fill="#D31818"/>
<path d="M34.84 33.05C34.83 33.14 34.8 33.23 34.77 33.31H12.52C12.51 33.23 12.48 33.15 12.45 33.05H34.84Z" fill="#D31818"/>
<path d="M34.04 35.72C34.01 35.8 33.99 35.88 33.95 35.96H13.36C13.32 35.88 13.29 35.8 13.27 35.72H34.04Z" fill="#D31818"/>
<path d="M32.93 38.37C32.89 38.46 32.85 38.55 32.81 38.63H14.5C14.46 38.55 14.42 38.47 14.38 38.37H32.93Z" fill="#D31818"/>
<path d="M31.4 41.03C31.33 41.12 31.28 41.21 31.21 41.29H16.09C16.04 41.21 15.97 41.13 15.91 41.03H31.4Z" fill="#D31818"/>
<path d="M29.06 43.69C28.97 43.77 28.87 43.87 28.76 43.93H18.56C18.45 43.86 18.36 43.77 18.26 43.69H29.06Z" fill="#D31818"/>
</g>
<defs>
<clipPath id="clip0_69:1657">
<rect width="47.32" height="65.36" fill="white"/>
</clipPath>
</defs>
</svg>
