<svg width="17" height="19" viewBox="0 0 17 19" fill="none" xmlns="http://www.w3.org/2000/svg">
<path d="M13.543 6.02798C13.52 7.53098 13.02 9.56598 10.676 10.355C11.41 8.60898 11.522 6.93798 11.002 5.37598C10.307 3.27898 7.988 1.64098 6.445 0.748978C5.918 0.442978 5.242 0.822978 5.252 1.43198C5.272 2.54398 4.934 4.16898 3.293 5.80998C1.107 7.99398 0 10.251 0 12.517C0 15.362 2 19 6 19C1.959 14.959 5 11.517 5 11.517C5.846 17.431 9.988 19 12 19C13.711 19 17 17.75 17 12.552C17 9.41898 15.668 7.04098 14.615 5.65298C14.268 5.19498 13.551 5.45498 13.543 6.02798Z" fill="#E8D4A2"/>
</svg>
