<svg width="14" height="19" viewBox="0 0 14 19" fill="none" xmlns="http://www.w3.org/2000/svg">
<path d="M6.99997 19C5.73691 17.9226 4.56616 16.7415 3.49997 15.469C1.89997 13.558 -2.96387e-05 10.712 -2.96387e-05 7.99997C-0.000723537 6.61493 0.409479 5.26082 1.17866 4.109C1.94785 2.95718 3.04144 2.05943 4.32104 1.52937C5.60064 0.999307 7.00872 0.86076 8.36709 1.13126C9.72545 1.40176 10.973 2.06915 11.952 3.04897C12.6037 3.69783 13.1203 4.46951 13.4719 5.31934C13.8234 6.16918 14.0029 7.0803 14 7.99997C14 10.712 12.1 13.558 10.5 15.469C9.43377 16.7415 8.26303 17.9226 6.99997 19ZM6.99997 4.99997C6.20432 4.99997 5.44126 5.31604 4.87865 5.87865C4.31604 6.44126 3.99997 7.20432 3.99997 7.99997C3.99997 8.79562 4.31604 9.55868 4.87865 10.1213C5.44126 10.6839 6.20432 11 6.99997 11C7.79562 11 8.55868 10.6839 9.12129 10.1213C9.6839 9.55868 9.99997 8.79562 9.99997 7.99997C9.99997 7.20432 9.6839 6.44126 9.12129 5.87865C8.55868 5.31604 7.79562 4.99997 6.99997 4.99997Z" fill="#5B9BD5"/>
</svg>
