<svg width="47" height="76" viewBox="0 0 47 76" fill="none" xmlns="http://www.w3.org/2000/svg">
<path d="M23.5 76C33.3786 76 37.8235 74.4915 40.309 73.562L46.5075 26.5071H0.493271L6.69253 73.5409C9.17805 74.48 13.6214 76 23.5 76Z" fill="#E3BBA0"/>
<path d="M37.8395 59.8809C39.9514 59.8809 41.6634 58.4519 41.6634 56.689C41.6634 54.9262 39.9514 53.4971 37.8395 53.4971C35.7277 53.4971 34.0157 54.9262 34.0157 56.689C34.0157 58.4519 35.7277 59.8809 37.8395 59.8809Z" fill="#694A38"/>
<path d="M36.8836 66.7434C38.9954 66.7434 40.7074 65.3143 40.7074 63.5514C40.7074 61.7886 38.9954 60.3595 36.8836 60.3595C34.7717 60.3595 33.0597 61.7886 33.0597 63.5514C33.0597 65.3143 34.7717 66.7434 36.8836 66.7434Z" fill="#7B5339"/>
<path d="M18.3378 75.2021C20.4497 75.2021 22.1617 73.773 22.1617 72.0102C22.1617 70.2473 20.4497 68.8182 18.3378 68.8182C16.2259 68.8182 14.5139 70.2473 14.5139 72.0102C14.5139 73.773 16.2259 75.2021 18.3378 75.2021Z" fill="#7B5339"/>
<path d="M8.20452 56.0505C10.3164 56.0505 12.0284 54.6214 12.0284 52.8586C12.0284 51.0957 10.3164 49.6666 8.20452 49.6666C6.09265 49.6666 4.38065 51.0957 4.38065 52.8586C4.38065 54.6214 6.09265 56.0505 8.20452 56.0505Z" fill="#694A38"/>
<path d="M27.6106 75.2021C29.7225 75.2021 31.4345 73.773 31.4345 72.0102C31.4345 70.2473 29.7225 68.8182 27.6106 68.8182C25.4988 68.8182 23.7868 70.2473 23.7868 72.0102C23.7868 73.773 25.4988 75.2021 27.6106 75.2021Z" fill="#7B5339"/>
<path d="M18.1466 68.3394C20.2585 68.3394 21.9705 66.9104 21.9705 65.1475C21.9705 63.3846 20.2585 61.9556 18.1466 61.9556C16.0347 61.9556 14.3227 63.3846 14.3227 65.1475C14.3227 66.9104 16.0347 68.3394 18.1466 68.3394Z" fill="#694A38"/>
<path d="M31.1478 56.0506C33.2596 56.0506 34.9716 54.6215 34.9716 52.8587C34.9716 51.0958 33.2596 49.6667 31.1478 49.6667C29.0359 49.6667 27.3239 51.0958 27.3239 52.8587C27.3239 54.6215 29.0359 56.0506 31.1478 56.0506Z" fill="#7B5339"/>
<path d="M29.2358 61.4769C31.3477 61.4769 33.0597 60.0478 33.0597 58.285C33.0597 56.5221 31.3477 55.093 29.2358 55.093C27.1239 55.093 25.4119 56.5221 25.4119 58.285C25.4119 60.0478 27.1239 61.4769 29.2358 61.4769Z" fill="#694A38"/>
<path d="M23.5 63.2324C25.6119 63.2324 27.3239 61.8033 27.3239 60.0404C27.3239 58.2776 25.6119 56.8485 23.5 56.8485C21.3881 56.8485 19.6761 58.2776 19.6761 60.0404C19.6761 61.8033 21.3881 63.2324 23.5 63.2324Z" fill="#7B5339"/>
<path d="M28.6622 68.499C30.7741 68.499 32.4861 67.0699 32.4861 65.3071C32.4861 63.5442 30.7741 62.1151 28.6622 62.1151C26.5503 62.1151 24.8383 63.5442 24.8383 65.3071C24.8383 67.0699 26.5503 68.499 28.6622 68.499Z" fill="#694A38"/>
<path d="M35.9276 73.6062C38.0395 73.6062 39.7515 72.1771 39.7515 70.4142C39.7515 68.6514 38.0395 67.2223 35.9276 67.2223C33.8157 67.2223 32.1037 68.6514 32.1037 70.4142C32.1037 72.1771 33.8157 73.6062 35.9276 73.6062Z" fill="#7B5339"/>
<path d="M13.9403 60.8385C16.0522 60.8385 17.7642 59.4094 17.7642 57.6465C17.7642 55.8837 16.0522 54.4546 13.9403 54.4546C11.8284 54.4546 10.1164 55.8837 10.1164 57.6465C10.1164 59.4094 11.8284 60.8385 13.9403 60.8385Z" fill="#7B5339"/>
<path d="M12.0284 73.6062C14.1403 73.6062 15.8523 72.1771 15.8523 70.4142C15.8523 68.6514 14.1403 67.2223 12.0284 67.2223C9.91652 67.2223 8.20451 68.6514 8.20451 70.4142C8.20451 72.1771 9.91652 73.6062 12.0284 73.6062Z" fill="#694A38"/>
<path d="M18.7202 57.6466C20.832 57.6466 22.544 56.2175 22.544 54.4546C22.544 52.6918 20.832 51.2627 18.7202 51.2627C16.6083 51.2627 14.8963 52.6918 14.8963 54.4546C14.8963 56.2175 16.6083 57.6466 18.7202 57.6466Z" fill="#694A38"/>
<path d="M10.1164 66.903C12.2283 66.903 13.9403 65.474 13.9403 63.7111C13.9403 61.9482 12.2283 60.5192 10.1164 60.5192C8.00458 60.5192 6.29257 61.9482 6.29257 63.7111C6.29257 65.474 8.00458 66.903 10.1164 66.903Z" fill="#694A38"/>
<path d="M46.5197 23.3382C46.5197 21.1211 36.2167 19.3431 23.4982 19.3431C10.795 19.3431 0.480286 21.1211 0.480286 23.3382L0.492564 23.4633L0.480286 27.3281L0.492564 27.4532C0.876839 29.5925 11.0374 31.3123 23.4975 31.3123C35.9613 31.3123 46.1041 29.595 46.5056 27.4583L46.5191 27.3275V27.3268L46.5056 23.4684L46.5197 23.3382Z" fill="#D6DDE5"/>
<path d="M0 23.5495C4.32404 24.7343 13.2275 25.5495 23.5 25.5495C33.7725 25.5495 42.676 24.7343 47 23.5495C44.9489 22.0665 35.2011 20.9391 23.5 20.9391C11.7989 20.9391 2.05113 22.0665 0 23.5495Z" fill="#E9C9B3"/>
<path d="M19.6155 11.3469V24.2697C19.6155 24.2697 20.3443 24.451 23.4998 24.451C26.6553 24.451 27.3841 24.2697 27.3841 24.2697V11.3469C26.217 11.4659 24.8978 11.5333 23.4998 11.5333C22.1018 11.5333 20.7826 11.4659 19.6155 11.3469Z" fill="#F2F4F7"/>
<path d="M19.6155 1.00427V11.3468C20.7826 11.4658 22.1018 11.5332 23.4998 11.5332C24.8978 11.5332 26.217 11.4658 27.3841 11.3468V1.00427H19.6155Z" fill="white"/>
<path d="M27.3841 4.18421C27.3841 3.12408 27.3841 2.06394 27.3841 1.00427H26.422C24.2072 2.78639 21.7439 3.82622 19.6155 4.18421C19.6155 5.52299 19.6155 6.86223 19.6155 8.201C22.0628 7.75444 24.9376 6.44057 27.3841 4.18421Z" fill="#A6663C"/>
<path d="M23.5 11.5332C23.0404 11.5332 22.5899 11.5258 22.1494 11.5119C21.2776 11.8469 20.4225 12.0826 19.6149 12.2182V16.235C20.7078 16.0357 21.8848 15.662 23.0717 15.1103C23.7233 14.8077 24.3764 14.4478 25.0211 14.0359C25.8326 13.5173 26.6295 12.9144 27.3843 12.2178V11.3463C26.2172 11.4658 24.898 11.5332 23.5 11.5332Z" fill="#C87B49"/>
<path d="M22.1494 11.5118C22.5891 11.5256 23.0404 11.533 23.5 11.533C24.898 11.533 26.2172 11.4657 27.3843 11.3466V8.20129C25.7492 9.74029 23.916 10.8327 22.1494 11.5118Z" fill="#A6663C"/>
<path d="M23.5013 2.00863C25.6465 2.00863 27.3856 1.55898 27.3856 1.00431C27.3856 0.449646 25.6465 0 23.5013 0C21.3561 0 19.617 0.449646 19.617 1.00431C19.617 1.55898 21.3561 2.00863 23.5013 2.00863Z" fill="#C3CDD9"/>
<path d="M24.9123 0.30217C25.9264 0.410121 27.004 0.692454 27.004 1.00431C27.004 1.16947 26.6652 1.35585 26.0977 1.50255C25.4102 1.68016 24.4886 1.77796 23.5013 1.77796C23.0119 1.77796 22.5377 1.75397 22.0903 1.70646C21.0762 1.5985 19.9986 1.31617 19.9986 1.00431C19.9986 0.681382 21.3309 0.230664 23.5005 0.230664C23.99 0.230664 24.4649 0.254653 24.9123 0.30217ZM24.9781 0.0751968C24.523 0.0267573 24.0236 0 23.5013 0C21.3561 0 19.617 0.449795 19.617 1.00431C19.617 1.42366 20.612 1.78304 22.0245 1.93343C22.4796 1.98187 22.979 2.00863 23.5013 2.00863C25.6465 2.00863 27.3856 1.55883 27.3856 1.00431C27.3856 0.584965 26.3914 0.22559 24.9781 0.0751968Z" fill="white"/>
<path d="M27.3843 18.6408C24.937 21.7632 22.063 23.5807 19.6149 24.1993C19.6149 22.3467 19.6149 20.4934 19.6149 18.6408C22.0576 18.0727 24.9416 16.2628 27.3843 13.0824C27.3843 14.935 27.3843 16.7882 27.3843 18.6408Z" fill="#C87B49"/>
</svg>
