<svg width="68" height="76" viewBox="0 0 68 76" fill="none" xmlns="http://www.w3.org/2000/svg">
<path d="M45.8807 22.1741L54.7785 16.7713L13.245 16.6541L22.2132 22.1741H45.8807Z" fill="#999A9C"/>
<path d="M39.1956 22.1741L43.0894 17.303L24.9341 17.2014L28.8513 22.1741H39.1956Z" fill="#B0B0B0"/>
<path d="M54.7628 16.5759C54.4031 17.0684 53.3867 17.1075 52.8316 17.2014C51.6979 17.4281 50.5798 17.6236 49.4226 17.6549C47.1864 17.7487 45.0753 17.3499 42.9173 16.8964C42.8548 16.8808 42.8157 16.8808 42.761 16.8573C41.3458 16.5524 40.1104 16.873 38.7108 17.0294C37.194 17.1779 35.6381 17.1779 34.1212 17.2014C32.4871 17.217 30.8529 17.1857 29.2345 17.0294C27.8349 16.8808 26.623 16.5524 25.2078 16.8573C25.1687 16.8573 25.1296 16.873 25.0905 16.873C22.8934 17.3499 20.8058 17.7487 18.5305 17.6549C17.3733 17.6158 16.2553 17.4281 15.1215 17.2014C14.5664 17.1075 13.5656 17.0684 13.1903 16.5759C12.9948 16.2866 13.3701 16.3491 13.6516 16.3257C14.0113 16.31 14.3475 16.2709 14.7071 16.2084C15.3874 16.0755 16.0442 15.8643 16.7009 15.6767C19.5704 14.801 22.2835 13.3311 24.8168 11.7908C26.0913 11.0323 27.3501 10.1879 28.5855 9.33566C29.2032 8.91344 29.8052 8.47559 30.4229 8.03774C30.7435 7.78754 31.7208 6.80237 32.0805 6.80237H35.8883C36.2479 6.80237 37.2409 7.79535 37.5615 8.03774C38.1635 8.47559 38.7812 8.91344 39.3754 9.33566C40.6108 10.1957 41.8696 11.0323 43.1441 11.7908C45.693 13.3311 48.3905 14.801 51.2835 15.6767C51.9402 15.8643 52.5814 16.0755 53.2616 16.2084C53.6213 16.2631 53.9809 16.3022 54.3406 16.3257C54.583 16.3413 54.9661 16.2866 54.7628 16.5759Z" fill="#384579"/>
<path d="M42.9173 17.0763C42.8548 17.131 42.8157 17.1701 42.7766 17.2092C42.4013 17.4828 41.6976 17.5219 41.2441 17.5767C38.8516 17.9285 36.3965 17.9833 34.0039 17.9442C31.5879 17.9833 29.1406 17.9285 26.7637 17.5767C26.3024 17.5219 25.6065 17.4828 25.2312 17.2092C25.1921 17.1701 25.1296 17.131 25.0905 17.0528C24.9107 16.8573 24.7699 16.5524 25.1296 16.5133C25.2703 16.5133 25.4267 16.4742 25.5909 16.396C25.8724 16.2631 26.1695 16.0442 26.451 15.8331C27.7098 14.9183 28.8826 13.3702 29.9772 11.7595C30.5558 10.9463 31.0953 10.0706 31.6348 9.17929C31.8928 8.73362 32.1509 8.26449 32.4323 7.80318C32.534 7.6468 32.7529 7.12294 32.9327 6.79456H35.0673C35.2706 7.12294 35.4895 7.6468 35.5833 7.80318C35.8413 8.27231 36.0994 8.73362 36.3808 9.17929C36.8969 10.0706 37.4598 10.9463 38.015 11.7595C39.1096 13.3702 40.2902 14.9183 41.5412 15.8331C41.8384 16.0442 42.1198 16.2631 42.4169 16.396C42.5577 16.4742 42.7141 16.5133 42.8782 16.5133C43.2223 16.5524 43.0815 16.8886 42.9173 17.0763Z" fill="#515E92"/>
<path d="M54.7393 16.2553C50.783 17.475 47.0769 17.3108 43.0581 16.4742C42.8392 16.4273 42.6828 16.5446 42.6046 16.6932C40.0166 17.952 37.1002 18.0067 34.2463 17.9676C31.3377 17.9285 27.7489 18.0771 25.239 16.5055C25.1061 16.4195 24.9732 16.4351 24.8716 16.4899C20.884 17.3108 17.1935 17.475 13.2607 16.2553C12.7603 16.0989 12.5491 16.8495 13.0417 17.0059C17.0528 18.2413 20.9153 18.0849 24.981 17.2561C27.616 18.8199 31.2595 18.7026 34.2463 18.7417C37.3191 18.7808 40.4231 18.6948 43.1832 17.2874C47.1864 18.0849 51.002 18.2256 54.9583 17.0059C55.4587 16.8495 55.2398 16.0989 54.7393 16.2553Z" fill="white"/>
<path d="M49.1176 32.0336L60.2516 25.2703L8.27223 25.1218L19.4922 32.0336H49.1176Z" fill="#999A9C"/>
<path d="M40.7593 32.0336L45.6226 25.9349L22.9012 25.802L27.8036 32.0336H40.7593Z" fill="#B0B0B0"/>
<path d="M59.6886 24.7074C59.2429 24.6839 58.7894 24.637 58.3438 24.5666C57.4915 24.4024 56.694 24.1366 55.873 23.902C53.3398 23.1358 50.9316 22.0021 48.6172 20.7276H19.8362C17.5219 22.0021 15.1137 23.128 12.596 23.902C11.775 24.1366 10.9463 24.4024 10.1018 24.5666C9.65615 24.637 9.22612 24.6839 8.78045 24.7074C8.42861 24.7308 7.95948 24.6605 8.20968 25.0201C8.68662 25.6378 9.92981 25.6847 10.6335 25.8098C12.0565 26.0991 13.4561 26.3337 14.9026 26.3806C17.7486 26.4979 20.3679 25.9975 23.1123 25.4032C23.1592 25.4032 23.2139 25.3798 23.2609 25.3798C25.0357 24.9967 26.5526 25.4032 28.304 25.5909C30.329 25.7785 32.3697 25.8333 34.4183 25.802C36.3182 25.7785 38.2651 25.7785 40.1573 25.5909C41.9009 25.4032 43.449 24.9967 45.2238 25.3798C45.302 25.4032 45.3489 25.4032 45.4271 25.4267C48.1246 25.9975 50.7674 26.4979 53.5665 26.3806C55.013 26.3337 56.4125 26.0913 57.8356 25.8098C58.5314 25.6925 59.8059 25.6456 60.2594 25.0201C60.4861 24.6605 60.017 24.7308 59.6886 24.7074Z" fill="#384579"/>
<path d="M45.3646 24.9497C45.1613 24.9497 44.9658 24.9028 44.7938 24.8012C44.4185 24.6292 44.0667 24.3633 43.6992 24.0975C42.5889 23.2922 41.5256 22.0803 40.5091 20.7276H27.9912C26.9748 22.0803 25.9192 23.2922 24.8012 24.0975C24.4493 24.3633 24.074 24.6292 23.73 24.8012C23.5267 24.895 23.3312 24.9497 23.1592 24.9497C22.7135 24.9967 22.8856 25.3876 23.1123 25.63C23.1592 25.7238 23.2374 25.7785 23.2843 25.8255C23.7613 26.1617 24.6291 26.2164 25.2077 26.2868C28.1789 26.7246 31.2517 26.795 34.2697 26.7481C37.2643 26.795 40.3371 26.7246 43.3317 26.2868C43.9025 26.2164 44.7782 26.1617 45.2551 25.8255C45.302 25.7785 45.3568 25.7316 45.4271 25.6534C45.6148 25.4111 45.7868 24.9967 45.3646 24.9497Z" fill="#515E92"/>
<path d="M60.2125 24.6214C55.2632 26.1538 50.6188 25.9427 45.5913 24.895C45.3177 24.8403 45.1222 24.981 45.0206 25.1687C41.7836 26.7481 38.1244 26.8106 34.559 26.7637C30.9154 26.7168 26.4275 26.9044 23.2843 24.9341C23.1123 24.8246 22.9559 24.8403 22.823 24.9107C17.8268 25.9427 13.2137 26.1382 8.28786 24.6214C7.66236 24.4259 7.39652 25.3641 8.0142 25.5596C13.0339 27.1077 17.8737 26.9123 22.9637 25.8724C26.2633 27.8271 30.8138 27.6863 34.559 27.7332C38.398 27.7801 42.2918 27.6785 45.7399 25.9115C50.7517 26.9123 55.529 27.0843 60.4783 25.5596C61.1038 25.3641 60.838 24.4259 60.2125 24.6214Z" fill="white"/>
<path d="M62.8788 75.5139H5.68428L13.3389 34.2932L13.6829 32.4636L14.3397 28.9139H54.2234V28.9295L54.8801 32.4636L55.2242 34.2932L62.8788 75.5139Z" fill="#D6B18A"/>
<path d="M8.07803 34.7932H21.9087V75.0061H0.60153L8.07803 34.7932Z" fill="#FFFAF0" stroke="#E0E0E0"/>
<path d="M22.4087 32.4558H6.29413L7.67023 34.2932H22.4087V32.4558Z" fill="#F7E8C9"/>
<path d="M46.0913 34.7932H59.922L67.3985 75.0061H46.0913V34.7932Z" fill="#FFFAF0" stroke="#E0E0E0"/>
<path d="M45.5913 32.4558H61.7059L60.3298 34.2932H45.5913V32.4558Z" fill="#F7E8C9"/>
<path d="M37.7179 27.9209H30.7826V37.5927H37.7179V27.9209Z" fill="#FFF2D7"/>
<path d="M37.0532 28.7028H31.5019V36.803H37.0532V28.7028Z" fill="white"/>
<path d="M36.8499 29.0156H31.7208V36.4903H36.8499V29.0156Z" fill="#976216"/>
<path d="M34.7389 29.4221H33.6912V31.0172H34.7389V29.4221Z" fill="#F9E482"/>
<path d="M34.7389 31.9554H33.6912V33.5504H34.7389V31.9554Z" fill="#F9E482"/>
<path d="M34.7389 34.3636H33.6912V35.9586H34.7389V34.3636Z" fill="#F9E482"/>
<path d="M35.1767 4.15961H32.8233L31.9476 6.80236H36.0524L35.1767 4.15961Z" fill="#93192E"/>
<path d="M36.1619 2.16581C36.1619 0.96953 35.1924 0 33.9961 0C32.7998 0 31.8303 0.96953 31.8303 2.16581C31.8303 2.56456 31.9476 2.93205 32.1274 3.2448L32.7685 4.88675H35.208L35.8491 3.2448C36.0446 2.92423 36.1619 2.55675 36.1619 2.16581Z" fill="#93192E"/>
<path d="M35.5129 4.78512H32.4949C32.4245 4.78512 32.362 4.73039 32.362 4.6522V4.58183C32.362 4.51146 32.4167 4.44891 32.4949 4.44891H35.5129C35.5833 4.44891 35.6458 4.50365 35.6458 4.58183V4.6522C35.638 4.73039 35.5833 4.78512 35.5129 4.78512Z" fill="#AD2D49"/>
<path d="M35.6146 5.30111H32.3932C32.3229 5.30111 32.2603 5.24638 32.2603 5.16819V5.09782C32.2603 5.02746 32.315 4.9649 32.3932 4.9649H35.6146C35.6849 4.9649 35.7475 5.01964 35.7475 5.09782V5.16819C35.7397 5.23856 35.6849 5.30111 35.6146 5.30111Z" fill="#AD2D49"/>
<path d="M35.6146 4.15957H32.3932C32.3229 4.15957 32.2603 4.10484 32.2603 4.02665V3.95628C32.2603 3.88591 32.315 3.82336 32.3932 3.82336H35.6146C35.6849 3.82336 35.7475 3.8781 35.7475 3.95628V4.02665C35.7397 4.10484 35.6849 4.15957 35.6146 4.15957Z" fill="#AD2D49"/>
<path d="M36.1853 6.96652H31.8146C31.7443 6.96652 31.6817 6.91179 31.6817 6.8336V6.76323C31.6817 6.69286 31.7365 6.63031 31.8146 6.63031H36.1853C36.2557 6.63031 36.3183 6.68504 36.3183 6.76323V6.8336C36.3104 6.90397 36.2557 6.96652 36.1853 6.96652Z" fill="#AD2D49"/>
<path d="M42.0729 57.9372V75.5061H25.9271V57.9372C25.9271 53.4883 29.5472 49.8682 33.9961 49.8682C36.1463 49.8682 38.1713 50.7127 39.7038 52.2373C41.2285 53.7776 42.0729 55.7949 42.0729 57.9372Z" fill="#2B2B2B"/>
<path d="M40.3606 51.5806C38.6561 49.8682 36.3965 48.93 33.9961 48.93C29.0311 48.93 24.9888 52.9723 24.9888 57.9372V75.5061H26.8653V57.9372C26.8653 54.02 30.071 50.8143 33.9883 50.8143C35.9508 50.8143 37.7335 51.6118 39.0236 52.9098C40.3137 54.1999 41.119 55.9747 41.119 57.9372V75.5061H42.9955V57.9372C43.0112 55.5447 42.0729 53.2851 40.3606 51.5806Z" fill="#FFFAF0"/>
</svg>
