<svg width="25" height="25" viewBox="0 0 25 25" fill="none" xmlns="http://www.w3.org/2000/svg">
<path d="M10.9167 21.25C13.2093 21.2495 15.436 20.482 17.242 19.0697L22.9201 24.7478L24.7465 22.9214L19.0684 17.2433C20.4815 15.4371 21.2495 13.2099 21.25 10.9167C21.25 5.21914 16.6142 0.583344 10.9167 0.583344C5.21913 0.583344 0.583336 5.21914 0.583336 10.9167C0.583336 16.6142 5.21913 21.25 10.9167 21.25ZM10.9167 3.16668C15.1908 3.16668 18.6667 6.64255 18.6667 10.9167C18.6667 15.1908 15.1908 18.6667 10.9167 18.6667C6.64254 18.6667 3.16667 15.1908 3.16667 10.9167C3.16667 6.64255 6.64254 3.16668 10.9167 3.16668Z" fill="#F2994A"/>
</svg>
